/* XPM */
static char *a984aa749a9640c1b2377365aa1d2f9b[] = {
/* columns rows colors chars-per-pixel */
"40 44 108 2 ",
"   c #020000",
".  c #090101",
"X  c #0A0907",
"o  c #0C0C0B",
"O  c #130E0D",
"+  c #13110F",
"@  c #161413",
"#  c #1A1613",
"$  c #1A1916",
"%  c #1E1C1B",
"&  c #241914",
"*  c #2A1C16",
"=  c #211E1C",
"-  c #23211F",
";  c #2F211D",
":  c #35241F",
">  c #252321",
",  c #2A2624",
"<  c #2C2A26",
"1  c #2D2B29",
"2  c #312E2B",
"3  c #34312E",
"4  c #38342E",
"5  c #363431",
"6  c #3A3633",
"7  c #3C3936",
"8  c #3E3C3A",
"9  c #402F29",
"0  c #433A34",
"q  c #413E3A",
"w  c #523C35",
"e  c #45413D",
"r  c #4B433D",
"t  c #51443B",
"y  c #58413A",
"u  c #64453A",
"i  c #734834",
"p  c #774C3A",
"a  c #7D4F3A",
"s  c #7D513B",
"d  c #464440",
"f  c #4A4642",
"g  c #4D4945",
"h  c #4F4D49",
"j  c #524B46",
"k  c #5B4D44",
"l  c #524E4A",
"z  c #584F49",
"x  c #56524D",
"c  c #59534E",
"v  c #565450",
"b  c #5A5651",
"n  c #5D5954",
"m  c #5E5C58",
"M  c #624940",
"N  c #6B4D42",
"B  c #745242",
"V  c #7D5443",
"C  c #74554B",
"Z  c #785A4D",
"A  c #625C56",
"S  c #625E59",
"D  c #65615C",
"F  c #69635D",
"G  c #656462",
"H  c #6A6661",
"J  c #6D6964",
"K  c #716B66",
"L  c #736E69",
"P  c #76716C",
"I  c #79746E",
"U  c #7A7671",
"Y  c #7E7873",
"T  c #824E39",
"R  c #82513B",
"E  c #8B533B",
"W  c #825642",
"Q  c #8A5640",
"!  c #845C46",
"~  c #8C5A43",
"^  c #845B4A",
"/  c #8C5F4A",
"(  c #935C45",
")  c #925F49",
"_  c #9A6146",
"`  c #95624C",
"'  c #9F644A",
"]  c #9B684F",
"[  c #8A6353",
"{  c #936652",
"}  c #9A6754",
"|  c #9B6B54",
" . c #956B5A",
".. c #9D6D59",
"X. c #9F7059",
"o. c #A2715C",
"O. c #9D7563",
"+. c #827C76",
"@. c #837E78",
"#. c #A47762",
"$. c #A97663",
"%. c #A67A65",
"&. c #A77769",
"*. c #AB7E69",
"=. c #AA806A",
"-. c #B4826C",
";. c #A58170",
":. c None",
/* pixels */
":.:.:.:.:.:.:.:.:.:.:.:.:.:.:.:.:.:.:.:.:.:.:.:.:.:.:.:.:.:.:.:.:.:.:.:.:.:.:.:.",
":.:.:.:.:.:.:.:.:.:.:.:.:.;.:.:.:.:.:.:.:.:.:.:.#.:.:.:.:.:.[ :.:.:.:.:.:.:.:.:.",
":.:.:.:.:.:.:.%.M :.:.:.:.O.M :.:.:.:.O.:.:.:.:.` w :.:.:.&.^ 9 :.:.:.:.:.:.:.:.",
":.:.:.:.:.:.=.{ C   :.:.:.{ Z . :.:.*. .w :.:...W N   :.:.$.V y   :.:.:.:.:.:.:.",
":.:.:.:.:.:.%.! [ X :.:.-.! [ O :.:.o.[ N   :.| V ^   :.:.o.p N   :.:.:.:.:.:.:.",
":.:.:.:.:.:.%.! { O :.:.%.V / # :.:.X./ V   :.` s / . :.:.} i B X :.:.:.:.:.:.:.",
":.:.:.:.:.:.%.` ] & :.:.X.! ~ & :.Z X.~ V   * ) ! E O :.:.} s V + :.:.:.:.:.:.:.",
":.:.:.:.:.:.X.` ` ; :.:.] ~ ~ &   ! ] ~ R . * Q ~ E &   :.) R ^ # :.:.:.:.:.:.:.",
":.:.:.:.:.:..._ ~ :   :.` _ E *   V ` ~ s X * E ( T =   u ~ E W $ :.:.:.:.:.:.:.",
":.:.:.:.:.:.| ( ~ :   :.` ' ( *   B ) E p X & Q ( a =   u Q ( ^ $ :.:.:.:.:.:.:.",
":.:.:.:.:.:.z t r ;   5 k y t %   0 r r 0 X $ j k j =   q k M c %   :.:.:.:.:.:.",
":.:.:.:.:.:.e 4 4 -   1 e e 4 %   1 4 6 2 X $ e g q > . 7 q r g %   :.:.:.:.:.:.",
":.:.:.:.:.:.e 4 3 -   < 7 e 7 %   3 6 7 3 o @ r g q >   3 q r g -   :.:.:.:.:.:.",
":.:.:.:.:.:.e e 8 <   1 e r e >   5 e e 7 X $ h v g < X q g g h >   :.:.:.:.:.:.",
":.:.:.:.:.:.v h g 8 o 7 x n h 5 o e h h d $ , n S b 7 + f v c v d   :.:.:.:.:.:.",
":.:.:.:.:.J v v g e > e m S v e = r n n l 1 7 G L S d > g n b x m + :.:.:.:.:.:.",
":.:.:.:.:.v e e e 3 = 8 c c x 5 % e x z g = 1 n S n q = 7 x x j m % :.:.:.:.:.:.",
":.:.:.:.:.v r r e 1 = 8 n n b 5 $ e z z g > < c m b q % 7 x z h b % :.:.:.:.:.:.",
":.:.:.:.:.v f r f 2 % e m A n 4 $ e c z j > < n S n e % 7 x z l b - :.:.:.:.:.:.",
":.:.:.:.:.c f r r 2 % 8 D S S 6 = r n c z > 1 A F D e % 7 c c x m > :.:.:.:.:.:.",
":.:.:.:.:.c f f f 3 % e S F F 6 % r n n b , < F H F e % 7 c v x m > :.:.:.:.:.:.",
":.:.:.:.:.c f f g 3 % e F F F 0 - t n A A 1 < F K H f = 7 n v l m < :.:.:.:.:.:.",
":.:.:.:.:.x f f h 3 % d F F D 7 - r A A n < < F K F g % 7 n c x m < :.:.:.:.:.:.",
":.:.:.:.:.x f f g 5 % d H H D 7 = g A A n 1 < H K H g % 7 S c x m 1 :.:.:.:.:.:.",
":.:.:.:.:.n g g l 3 % d J J H 8 = l A A b 2 2 H L K l % 7 S b c m 1 :.:.:.:.:.:.",
":.:.:.:.:.m g g l 5 % d J J H 8 - l D A A 1 2 J I L l = 7 S v c m 2   :.:.:.:.:.",
":.:.:.:.:.m g g h 3 % d J K J 8 = z D A A 2 1 K I I v % 7 m n n m 1   :.:.:.:.:.",
":.:.:.:.:.m g g l 6 % f J J J q % z F D S 2 1 J I I b = 7 D n n S 3   :.:.:.:.:.",
":.:.:.:.:.D h g l 7 % d P L K q = v F F S 2 1 K U U n > 7 D m n m 5   :.:.:.:.:.",
":.:.:.:.:.S h g l 7 % f I P L q = v H F H 2 1 K Y U n > 7 D A n S 5   :.:.:.:.:.",
":.:.:.:.:.G l h l 7 % f P P K q = n J H H 3 1 L @.Y m > 7 G D n m 7   :.:.:.:.:.",
":.:.:.:.:.G v x v 8 % f P I P q % m L H J 2 , L @.Y n > 7 D A n D 8   :.:.:.:.:.",
":.:.:.:.:.G v x b 8 = f I U P 8 % S L L K 2 2 K @.U m > 7 D D n m 8   :.:.:.:.:.",
":.:.:.:.:.G v v b d % g I U P q % S I L K 2 < L @.U S > 7 D D m S q   :.:.:.:.:.",
":.:.:.:.:.J v v b q = g P I L 8 % S L L J 3 < J +.I A > 6 A S n m e   :.:.:.:.:.",
":.:.:.:.:.G v x x 7 % f L P J 7 % n J J H 2 > F P L n > 3 b b c n d   :.:.:.:.:.",
":.:.:.:.:.G l h h 6 $ q J J D 6 $ l S S A 2 > S K J b > 2 c c l m f   :.:.:.:.:.",
":.:.:.:.:.J v l h 6 @ 7 H F n 2 @ h A n c , % b J H x % 1 c b c m h   :.:.:.:.:.",
":.:.:.:.:.G l l d 2 @ 5 n n l > + g v x l > # g S S g % , g x x n h   :.:.:.:.:.",
":.:.:.:.:.G h d 7 > @ < f f q = @ 3 r q 0 $ # 8 l l q % = e j l n g   :.:.:.:.:.",
":.:.:.:.:.m 8 3 > @ = $ 1 2 > + = = 1 < - % = , 8 8 > % $ < 7 e g g :.:.:.:.:.:.",
":.:.:.:.:.v 8 5 < % @ $ 1 1 > @ @ > 2 1 , # # > 2 3 > @ $ < 7 8 e 6 :.:.:.:.:.:.",
":.:.:.:.:.:.:.:.:.:.:.:.:.:.:.:.:.:.:.:.:.:.:.:.:.:.:.:.:.:.:.:.:.:.:.:.:.:.:.:.",
":.:.:.:.:.:.:.:.:.:.:.:.:.:.:.:.:.:.:.:.:.:.:.:.:.:.:.:.:.:.:.:.:.:.:.:.:.:.:.:."
};
