/* XPM */
static char *_fefe7e175c74a3982967db137c0d67b[] = {
/* columns rows colors chars-per-pixel */
"32 32 2 1 ",
"  c #F44336",
". c None",
/* pixels */
"................................",
"................................",
"................................",
"................................",
"............... ................",
"............... ................",
"............... ................",
"............... ................",
"............... ................",
"............... ................",
"............... ................",
"............... ................",
"............... ................",
"................................",
"................................",
"....         .. ..          ....",
"................................",
"................................",
"............... ................",
"............... ................",
"............... ................",
"............... ................",
"............... ................",
"............... ................",
"............... ................",
"............... ................",
"............... ................",
"............... ................",
"................................",
"................................",
"................................",
"................................"
};
