/* XPM */
static char *_238e4e1bbda45cbb16000293211a648[] = {
/* columns rows colors chars-per-pixel */
"50 50 18 1 ",
"  c #020000",
". c #090101",
"X c #120000",
"o c #220000",
"O c #330000",
"+ c #470000",
"@ c #4A0000",
"# c #720000",
"$ c #8E0000",
"% c #930000",
"& c #9C0000",
"* c #AB0000",
"= c #CB0000",
"- c #D70000",
"; c #DD0000",
": c #F00000",
"> c #FE0000",
", c None",
/* pixels */
",,,,,,,,,,,,,,,,,,,,,,,,,,,,,,,,,,,,,,,,,,,,,,,,,,",
",,,,,,,,,,,,,,,,,,,,,,,,,,,,,,,,,,,,,,,,,,,,,,,,,,",
",,,,,,,,,,,,,,,,,,,,,,,,,,,,,,,,,,,,,,,,,,,,,,,,,,",
",,,,,,,,,,,,,,,,,,,,,,,,,,,,,,,,,,,,,,,,,,,,,,,,,,",
",,,,,,,,,,,,,,,,,,,,>>>>>>>>>>>>,,,,,,,,,,,,,,,,,,",
",,,,,,,,,,,,,,,,,,X&>>>>>>>>>>>>,,,,,,,,,,,,,,,,,,",
",,,,,,,,,,,,,,,,,,.$>>>>>>>>>>>>,,,,,,,,,,,,,,,,,,",
",,,,,,,,,,,,,,,,,,.$>>>>>>>>>>>>,,,,,,,,,,,,,,,,,,",
",,,,,,,,,,,,,,,,,, $>>>>>>>>>>>>,,,,,,,,,,,,,,,,,,",
",,,,,,,,,,,,,,,,,,.$>>>>>>>>>>>>,,,,,,,,,,,,,,,,,,",
",,,,,,,,,,,,,,,,,,.$>>>>>>>>>>>>,,,,,,,,,,,,,,,,,,",
",,,,,,,,,,,,,,,,,, $>>>>>>>>>>>>,,,,,,,,,,,,,,,,,,",
",,,,,,,,,,,,,,,,,,.$>>>>>>>>>>>>,,,,,,,,,,,,,,,,,,",
",,,,,,,,,,,,,,,,,, $>>>>>>>>>>>>,,,,,,,,,,,,,,,,,,",
",,,,,,,,,,,,,,,,,,.$>>>>>>>>>>>>,,,,,,,,,,,,,,,,,,",
",,,,,,,,,,,,,,,,,,.$>>>>>>>>>>>>,,,,,,,,,,,,,,,,,,",
",,,,,,,,,,,,,,,,,,.%>>>>>>>>>>>>,,,,,,,,,,,,,,,,,,",
",,,,,,,,,,,,,,,,,*#=>>>>>>>>>>>>>,,,,,,,,,,,,,,,,,",
",,,,,,@;>>>>>>>>>>>>>>>>>>>>>>>>>>>>>>>>>>>>,,,,,,",
",,,,,.o=>>>>>>>>>>>>>>>>>>>>>>>>>>>>>>>>>>>>,,,,,,",
",,,,,.o=>>>>>>>>>>>>>>>>>>>>>>>>>>>>>>>>>>>>,,,,,,",
",,,,,.o=>>>>>>>>>>>>>>>>>>>>>>>>>>>>>>>>>>>>,,,,,,",
",,,,,.o=>>>>>>>>>>>>>>>>>>>>>>>>>>>>>>>>>>>>,,,,,,",
",,,,,.o=>>>>>>>>>>>>>>>>>>>>>>>>>>>>>>>>>>>>,,,,,,",
",,,,,.o=>>>>>>>>>>>>>>>>>>>>>>>>>>>>>>>>>>>>,,,,,,",
",,,,,.o=>>>>>>>>>>>>>>>>>>>>>>>>>>>>>>>>>>>>,,,,,,",
",,,,,.o=>>>>>>>>>>>>>>>>>>>>>>>>>>>>>>>>>>>>,,,,,,",
",,,,,.o=>>>>>>>>>>>>>>>>>>>>>>>>>>>>>>>>>>>>,,,,,,",
",,,,,.o=>>>>>>>>>>>>>>>>>>>>>>>>>>>>>>>>>>>>,,,,,,",
",,,,,.o=>>>>>>>>>>>>>>>>>>>>>>>>>>>>>>>>>>>>,,,,,,",
",,,,,.o=>>>>>>>>>>>>>>>>>>>>>>>>>>>>>>>>>>>>,,,,,,",
",,,,,,..         ..&>>>>>>>>>>>-O        .,,,,,,,,",
",,,,,,,,,,,,,,,,,,.$>>>>>>>>>>>>,,,,,,,,,,,,,,,,,,",
",,,,,,,,,,,,,,,,,,.$>>>>>>>>>>>>,,,,,,,,,,,,,,,,,,",
",,,,,,,,,,,,,,,,,, $>>>>>>>>>>>>,,,,,,,,,,,,,,,,,,",
",,,,,,,,,,,,,,,,,,.$>>>>>>>>>>>>,,,,,,,,,,,,,,,,,,",
",,,,,,,,,,,,,,,,,, $>>>>>>>>>>>>,,,,,,,,,,,,,,,,,,",
",,,,,,,,,,,,,,,,,, $>>>>>>>>>>>>,,,,,,,,,,,,,,,,,,",
",,,,,,,,,,,,,,,,,,.$>>>>>>>>>>>>,,,,,,,,,,,,,,,,,,",
",,,,,,,,,,,,,,,,,, $>>>>>>>>>>>>,,,,,,,,,,,,,,,,,,",
",,,,,,,,,,,,,,,,,,.$>>>>>>>>>>>>,,,,,,,,,,,,,,,,,,",
",,,,,,,,,,,,,,,,,, $>>>>>>>>>>>>,,,,,,,,,,,,,,,,,,",
",,,,,,,,,,,,,,,,,,.$>>>>>>>>>>>>,,,,,,,,,,,,,,,,,,",
",,,,,,,,,,,,,,,,,,.#;;;;;;;;;:>>,,,,,,,,,,,,,,,,,,",
",,,,,,,,,,,,,,,,,,o+#########,,,,,,,,,,,,,,,,,,,,,",
",,,,,,,,,,,,,,,,,,,,,,,,,,,,,,,,,,,,,,,,,,,,,,,,,,",
",,,,,,,,,,,,,,,,,,,,,,,,,,,,,,,,,,,,,,,,,,,,,,,,,,",
",,,,,,,,,,,,,,,,,,,,,,,,,,,,,,,,,,,,,,,,,,,,,,,,,,",
",,,,,,,,,,,,,,,,,,,,,,,,,,,,,,,,,,,,,,,,,,,,,,,,,,",
",,,,,,,,,,,,,,,,,,,,,,,,,,,,,,,,,,,,,,,,,,,,,,,,,,"
};
