/* XPM */
static char *_6e8e2408248445e819ec1c77e5be640[] = {
/* columns rows colors chars-per-pixel */
"32 32 31 1 ",
"  c #030201",
". c #0A0704",
"X c #0C0805",
"o c #0E0906",
"O c #0C0A08",
"+ c #0E0B09",
"@ c #120C07",
"# c #150E08",
"$ c #150F0A",
"% c #16100C",
"& c #17110D",
"* c #16110E",
"= c #191310",
"- c #412B1A",
"; c #422B1B",
": c #4B321E",
"> c #4B321F",
", c #4C321E",
"< c #4C321F",
"1 c #4D3522",
"2 c #563923",
"3 c #573923",
"4 c #573A24",
"5 c #583C27",
"6 c #593D28",
"7 c #5A3D28",
"8 c #4D3D31",
"9 c #594538",
"0 c #594638",
"q c #654F40",
"w c #665041",
/* pixels */
"+9wwqqqqqqqqqqq0*0qqqqqqqqqqqqqq",
"X15555555555555>&165555555555555",
"X>3333332233333:#:44223333322233",
"X>3333332233333>#>44233333222333",
"X>3333333333334>#>44333322342222",
"X>4333334433344>#>44334433343333",
"X->>>>>>>>>>>>>-@->>>>>:>::::>::",
"O$*%%%%$o%&&%%*$o%&&%%&%.$&&&&&$",
"99090008%800000000000008&8000000",
"66665551%15555556555566>%1555565",
"3343333>#>4322334333443:#>433343",
"3333333>#>3333332233333>#>433333",
"2233324>#>3333332222433>#>343322",
"3333334>%>4433342222444>#>443333",
">>>>>>>-@->,>,>,>>>>>>>-@->>>>>>",
"X%%*%**%O*%%%**%.%*%&&*%o%&&&&%$",
"O800000000009998&800000000000000",
"X165555566666661%165655555666665",
"X>3333333333333>#,44333333322232",
"X>3333332233333>#,44333333222222",
"X>3333332222333>#,44433322222222",
"X>5333332222333>#,44443432222222",
".->><>>>>>>>1,>-@-,,::>,<:1:>1>>",
"X%%**%**X%%%%*%%o**&%%%%.%=$$=%$",
"00000008*800990000009908%8999999",
"65556661#155665566666651%1556566",
"5333332>#>2253323233333>#<233333",
"3333333>@>3233322233333>#<333333",
"2233323>#>3322332222333>o>333333",
"3333335>%>3333332222333>*>533333",
">>>>>>>-o->>>>>>>>1>>>>-@->>>>>>",
"XXXXXXX. .XXXXXXXXXXXXX. XXXXXXX"
};
