/* XPM */
static char *_dc5e85e1aac4764e87701c6b42227f8[] = {
/* columns rows colors chars-per-pixel */
"32 32 2 1 ",
"  c black",
". c gray100",
/* pixels */
"................................",
"................................",
"................................",
"........ .............   .......",
".......  ................ ......",
"........ ..............  .......",
"........ ............. .........",
"........ .............    ......",
".......   ......................",
"................................",
"................................",
"................................",
"................................",
"...................... .........",
"......   ............. .........",
"......... ............ . .......",
".......  .............   .......",
"......... .............. .......",
"......   ............... .......",
"................................",
"................................",
"......................... ......",
"........................ .......",
"......    ............. ........",
"...... ...............    ......",
"......   ............. ... .....",
"......... ............ ... .....",
"...... .. .............   ......",
".......  .......................",
"................................",
"................................",
"................................"
};
