/* XPM */
static char *_b635a2fff7146e286d66d12fcd943ee[] = {
/* columns rows colors chars-per-pixel */
"32 32 48 1 ",
"  c #3F3E39",
". c #46433D",
"X c #49453F",
"o c #4D4A43",
"O c #514E47",
"+ c #524F49",
"@ c #545147",
"# c #56524B",
"$ c #5A554D",
"% c #5C584F",
"& c #5B5751",
"* c #5D5A52",
"= c #625D55",
"- c #635F59",
"; c #656157",
": c #66625A",
"> c #6A655C",
", c #6D695E",
"< c #70695F",
"1 c #6B6761",
"2 c #6E6961",
"3 c #736D63",
"4 c #736E68",
"5 c #767166",
"6 c #797267",
"7 c #767269",
"8 c #7B766B",
"9 c #7E786D",
"0 c #7B7670",
"q c #7E7972",
"w c #817A6E",
"e c #837D72",
"r c #837F79",
"t c #868074",
"y c #888276",
"u c #85817A",
"i c #8B857A",
"p c #8E897D",
"a c #908A7F",
"s c #8E8A81",
"d c #928D82",
"f c #969186",
"g c #989187",
"h c #969288",
"j c #9A958A",
"k c #9C988E",
"l c #9E9A91",
"z c #A09C91",
/* pixels */
"qsueqeeqw3&esrweerq0::iurqweee8#",
"ldiyiiiie32kduiiipye:tjpiiiiit8&",
"he99eyet9:,aw8wreee7*qy99wywrw3#",
"gew9999e9:-dw999wwe9%8iw99w9ew4o",
"w2,,>,:;:+#7,,>><;--X:5,,>,>::*.",
"2>,>%%1>;*-2,>>#=,:-*:1,>=#:,-=&",
"dppy>qkdspdapaw;djddsaaai71lfspa",
"wew9-ep99wwwew5-de9wwwtew,2dw9ww",
"eww9*qitw89tw95*iyt88wew9::aeww9",
"966,@4w9866855:+ew8668875%=rw766",
"&*%+o#;--$$**$Oo---=$$**$OO-===#",
"dhspiiiyy5;fgsyiiuit>5hdpuupiyw$",
"kiweyyyt9,2gyettyiew-rdeeetyyw6$",
"ge99tewt9:>aw9wtwee6*9ywwetwee3@",
"fw98666w9--i896869w6#8yw8668ww<o",
",-;-=-=$#oo>;;===$%#X%;;====$$O ",
"9908-:rw8789994%5eq879q981%qe074",
"iiie;rjiiiiiii8;fdpuiyiiy43jspup",
"9tw9-9yw99wwt85=ae99wwee9>,aw9ww",
"t999*8ie999eww3$uyew9eew9:-dee99",
",,:;o:533,,,>>$o533,,3>>;O#63<<<",
";2>-*:1,>=+>2:;*>,>,%$11:*-1,1:@",
"ljssaaapi52kgddpddpy:ekdsaadaiw%",
"jt8eeyee9>2dt8wteew7=wp9weytew3#",
"ge98ewwy9>:d998t9et8%9iw8we9te3O",
"i86736353$*t87553351O3w6635535;X",
":==*$$%$#OO;;**#$*$#o%;==%$%&#@X",
"piit>7hspyiiyiq;uhsiiuiii3:ddsii",
"ettw;tsttttttt8;fit9tttte,2gueet",
"et88=9iew88wt85*it988eew9,>ae999",
"ww85$0tt989w88,$ytt96www9=:iee89",
":;;$X*,:>;>;;=@X,>>>;>=;%oO2>>::"
};
