/* XPM */
static char *_a0fde9d52794742d78fb89859d26af9[] = {
/* columns rows colors chars-per-pixel */
"32 32 6 1 ",
"  c black",
". c #795548",
"X c #F44336",
"o c #E91E63",
"O c #CDDC39",
"+ c #00BCD4",
/* pixels */
"OOOOOOXXXXXXXXXXXXXXXXXXXXXXXooo",
"OOOXXXXXXXXXXXXXXXXXXXXXXXXXXooo",
"OOOXXXXXXXXXXXXXXXXXXXXXXXXXXooo",
"OOOXXXXX XXXXXXXXXXXXX   XXXXooo",
"OOOXXXX  XXXXXXXXXXXXXXXX XXXooo",
"OOOXXXXX XXXXXXXXXXXXXX  XXXXooo",
"OOOXXXXX XXXXXXXXXXXXX XXXXXXXXX",
"XOXXXXXX XXXXXXXXXXXXX    XXXXXX",
"XXXXXXX   XXXXXXXXXXXXXXXXXXXXXX",
"XXXXXXXXXXXXXXXXXXXXXXXXXXXXXXXX",
"XXXXXXXXXXXXXXXXXXXXXXXXXXXXXXXX",
"XXXXXXXXXXXXXXXXXXXXXXXXXXXXXXXX",
"XXXXXXXXXXXXXXXXXXXXXXXXXXXXXXXX",
"XXXXXXXXXXXXXXXXXXXXXX XXXXXXXXX",
"XXXXXX   XXXXXXXXXXXXX XXXXXXX++",
"++XXXXXXX XXXXXXXXXXXX X XXXXX++",
"++XXXXX  XXXXXXXXXXXXX   XXXXX++",
"++XXXXXXX XXXXXXXXXXXXXX XXXXXXX",
"XXXXXX   XXXXXXXXXXXXXXX XXXXXXX",
"XXXXXXXXXXXXXXXXXXXXXXXXXXXXXXXX",
"XXXXXXXXXXXXXXXXXXXXXXXXXXXXXXXX",
"XXXXXXXXXXXXXXXXXXXXXXXXX XXXXXX",
"XXXXXXXXXXXXXXXXXXXXXXXX XXXXXXX",
"XXXXXX    XXXXXXXXXXXXX XXXXXXXX",
"XXXXXX XXXXXXXXXXXXXXX    XXXXXX",
"XXXXXX   XXXXXXXXXXXXX ooo XXXXX",
"XXXXXXXXX XXXXXXXXXXXX ooo XXXXX",
"XXXXXX XX XXXXXXXXXXXXX   XXXXXX",
".XXXXXX  XXXXXXXXXXXXXXXXXXXXXXX",
"...XXXXXXXXXXXXXXXXXXXXXXXXXX   ",
"...XXXXXXXXXXXXXXXXXXXXXXXXXX   ",
"...XXXXXXXXXXXXXXXXXXXXXXXXXX   "
};
